<?xml version="1.0" encoding="utf-8"?>
<!-- Generator: Adobe Illustrator 22.1.0, SVG Export Plug-In . SVG Version: 6.00 Build 0)  -->
<svg version="1.1" id="Layer_1" xmlns="http://www.w3.org/2000/svg" xmlns:xlink="http://www.w3.org/1999/xlink" x="0px" y="0px"
	 viewBox="0 0 50 50" style="enable-background:new 0 0 50 50;" xml:space="preserve">
<style type="text/css">
	.st0{fill:#1E1F1F;}
</style>
<g>
	<g>
		<path class="st0" d="M20.4,40.8c-2.3,0-4.1,1.8-4.1,4.1c0,2.3,1.8,4.1,4.1,4.1c2.3,0,4.1-1.8,4.1-4.1
			C24.5,42.7,22.6,40.8,20.4,40.8z M35.8,40.8c-2.3,0-4.1,1.8-4.1,4.1c0,2.3,1.8,4.1,4.1,4.1c2.3,0,4.1-1.8,4.1-4.1
			C39.9,42.7,38,40.8,35.8,40.8z M42.6,30.4c0.5,0,0.9-0.3,1-0.7l5.8-20.6c0.2-0.5-0.1-1.1-0.7-1.2h-37c0-0.1,0-0.2-0.1-0.2L9.7,2.3
			C9.5,1.6,8.9,1.2,8.2,1H2.4C1.3,1.1,0.5,2,0.5,3c0,1.1,0.8,1.9,1.9,2h4.1l1,2.6l6.1,22c0,0.2,0.1,0.3,0.2,0.4l-2.4,5.9
			c-0.4,0.9,0.1,2,1,2.5h0.1c0.2,0.1,0.5,0.2,0.8,0.2h28.6c1.1,0,2-0.9,2-2c0-1.1-0.9-2-2-2H16.1l1.7-4.1H42.6z"/>
	</g>
</g>
</svg>
