<?xml version="1.0" encoding="utf-8"?>
<!-- Generator: Adobe Illustrator 18.1.0, SVG Export Plug-In . SVG Version: 6.00 Build 0)  -->
<svg version="1.1" id="Layer_1" xmlns="http://www.w3.org/2000/svg" xmlns:xlink="http://www.w3.org/1999/xlink" x="0px" y="0px"
	 viewBox="0 0 305.7 78.2" enable-background="new 0 0 305.7 78.2" xml:space="preserve">
<g>
	<rect x="243.5" y="52.3" fill="#696969" width="14.9" height="4.4"/>
	<path fill="#696969" d="M272.1,36c2.3-0.9,4.1-2.7,4.1-5.9c0-4.9-3.6-7.1-10.4-7.1h-7.3V36h-14.9V10H258h14.5
		c10.1,0,18.8,5.9,18.8,17.6c0,2.6-0.8,5.7-2.2,8.4H272.1z"/>
	<path fill="#696969" d="M243.5,42.6l37.9,0c2.8-0.8,5.2-2.9,6.8-5.4h-44.8V42.6z"/>
	<path fill="#696969" d="M292.6,69.6h-15.8c0.3,0.6,0.6,1.2,1,1.8h16.7C293.9,70.9,293.1,70.3,292.6,69.6z"/>
	<path fill="#696969" d="M291.2,60.8h-15.8c0,0.4,0.1,0.8,0.1,1.2c0.1,0.8,0.1,1.7,0.2,2.5h15.6C291.1,63.2,291.1,62,291.2,60.8z"/>
	<path fill="#696969" d="M290.3,52.3h-16.9c0.9,1.2,1.3,2.7,1.6,4.4h16C290.8,55.2,290.6,53.7,290.3,52.3z"/>
	<polygon fill="#696969" points="243.5,69.6 243.5,71.5 258.4,71.5 258.4,69.6 258.4,69.6 243.5,69.6 	"/>
	<polygon fill="#696969" points="258.4,64.5 258.4,64.5 258.4,60.8 258.4,60.8 243.5,60.8 243.5,60.8 243.5,64.5 	"/>
	<path fill="#696969" d="M243.5,49.4h45.8c-0.8-2-2.1-3.8-4.1-4.9l-41.8,0V49.4z"/>
	<path fill="#696969" d="M61.1,32.9C59.5,17.5,50.8,8.6,35,8.6C17.3,8.6,5.9,21.4,5.9,40.7c0,18.2,10.6,32.2,29.2,32.2
		c16.8,0,26.3-12.2,26.3-24.6H45.2c0.1,6.2-5,9.9-10.7,9.9c-9.2,0-12.8-9.2-12.8-17.5c0-8.7,2.3-17.9,12.8-17.9
		c8.5,0,10.8,6.9,10.9,10.1H61.1z"/>
	<path fill="#696969" d="M61.2,40.4c0-17.5,14.2-31.7,31.7-31.7c17.5,0,31.7,14.2,31.7,31.7c0,17.5-14.2,31.7-31.7,31.7
		C75.4,72.1,61.2,57.9,61.2,40.4 M75.9,40.4c0,9.4,7.6,17,17,17c9.4,0,17-7.6,17-17c0-9.4-7.6-17-17-17
		C83.5,23.5,75.9,31.1,75.9,40.4"/>
	<polygon fill="#696969" points="125.5,71.5 140.1,71.5 140.1,37.9 140.2,37.9 157.9,71.5 172.9,71.5 172.9,10 158.3,10 158.3,42.9 
		158.2,42.9 141.4,10 125.5,10 	"/>
	<polygon fill="#696969" points="202.5,42.6 200.9,37.2 216.3,37.2 218,42.6 	"/>
	<polygon fill="#696969" points="171.5,69.6 170.9,71.5 186.8,71.5 187.4,69.6 	"/>
	<polygon fill="#696969" points="188.8,64.5 189.9,60.8 174.2,60.8 173.1,64.5 	"/>
	<polygon fill="#696969" points="224.8,64.5 223.6,60.8 207.2,60.8 208.3,64.5 	"/>
	<polygon fill="#696969" points="222.3,56.7 220.9,52.3 176.9,52.3 175.5,56.7 	"/>
	<polygon fill="#696969" points="177.7,49.4 220.1,49.4 218.6,44.5 179.3,44.5 	"/>
	<polygon fill="#696969" points="195,42.6 196.6,37.2 181.5,37.2 179.8,42.6 	"/>
	<polyline fill="#696969" points="198.4,10 189.9,10 181.9,36 197,36 198.8,29.9 200.6,36 215.9,36 207.9,10 198.4,10 	"/>
	<rect x="225.4" y="10" fill="#696969" width="15.2" height="25.9"/>
	<rect x="225.4" y="37.2" fill="#696969" width="15.2" height="5.4"/>
	<rect x="225.4" y="44.5" fill="#696969" width="15.2" height="4.9"/>
	<rect x="225.4" y="52.3" fill="#696969" width="15.2" height="4.4"/>
	<rect x="225.4" y="60.8" fill="#696969" width="15.2" height="3.7"/>
	<polygon fill="#696969" points="240.6,71.5 240.6,69.6 209.6,69.6 210.1,71.5 	"/>
</g>
<g>
	<path fill="#696969" d="M291.5,12.5c0.3-0.6,0.6-1,1-1.4c0.4-0.4,0.9-0.7,1.5-0.9c0.6-0.2,1.1-0.3,1.7-0.3c0.6,0,1.2,0.1,1.7,0.3
		c0.6,0.2,1,0.5,1.5,0.9c0.4,0.4,0.8,0.9,1,1.4c0.3,0.6,0.4,1.2,0.4,1.8c0,0.7-0.1,1.3-0.4,1.9c-0.3,0.6-0.6,1-1,1.4
		c-0.4,0.4-0.9,0.7-1.5,0.9c-0.6,0.2-1.1,0.3-1.7,0.3c-0.6,0-1.2-0.1-1.7-0.3c-0.6-0.2-1-0.5-1.5-0.9c-0.4-0.4-0.8-0.9-1-1.4
		c-0.3-0.6-0.4-1.2-0.4-1.9C291.2,13.6,291.3,13,291.5,12.5z M292.7,15.7c0.2,0.4,0.4,0.8,0.7,1.1c0.3,0.3,0.7,0.6,1.1,0.7
		c0.4,0.2,0.9,0.3,1.3,0.3c0.5,0,0.9-0.1,1.3-0.3c0.4-0.2,0.8-0.4,1.1-0.7c0.3-0.3,0.5-0.7,0.7-1.1c0.2-0.4,0.3-0.9,0.3-1.4
		c0-0.5-0.1-1-0.3-1.4c-0.2-0.4-0.4-0.8-0.7-1.1c-0.3-0.3-0.7-0.6-1.1-0.7c-0.4-0.2-0.9-0.3-1.3-0.3c-0.5,0-0.9,0.1-1.3,0.3
		c-0.4,0.2-0.8,0.4-1.1,0.7c-0.3,0.3-0.5,0.7-0.7,1.1c-0.2,0.4-0.3,0.9-0.3,1.4C292.4,14.8,292.5,15.3,292.7,15.7z M295.9,11.8
		c0.6,0,1.1,0.1,1.5,0.3c0.3,0.2,0.5,0.6,0.5,1.2c0,0.2,0,0.4-0.1,0.6c-0.1,0.2-0.2,0.3-0.3,0.4c-0.1,0.1-0.3,0.2-0.4,0.2
		c-0.2,0.1-0.3,0.1-0.5,0.1l1.3,2.2h-1l-1.2-2.1H295v2.1h-1v-5H295.9z M295.9,13.9c0.3,0,0.5,0,0.7-0.1c0.2-0.1,0.3-0.3,0.3-0.6
		c0-0.1,0-0.2-0.1-0.3c-0.1-0.1-0.1-0.1-0.2-0.2c-0.1,0-0.2-0.1-0.3-0.1c-0.1,0-0.2,0-0.4,0H295v1.3H295.9z"/>
</g>
</svg>
