<?xml version="1.0" encoding="utf-8"?>
<!-- Generator: Adobe Illustrator 24.0.1, SVG Export Plug-In . SVG Version: 6.00 Build 0)  -->
<svg version="1.1" id="Layer_1" xmlns="http://www.w3.org/2000/svg" xmlns:xlink="http://www.w3.org/1999/xlink" x="0px" y="0px"
	 viewBox="0 0 35 35" style="enable-background:new 0 0 35 35;" xml:space="preserve">
<path d="M19.09,17.5L33.43,3.23c0.22-0.22,0.33-0.51,0.33-0.79s-0.11-0.58-0.33-0.8C33,1.2,32.29,1.19,31.85,1.63L17.5,15.91
	L3.23,1.57C3.01,1.35,2.72,1.24,2.43,1.24s-0.58,0.11-0.8,0.33C1.2,2,1.19,2.71,1.63,3.15L15.91,17.5L1.56,31.77
	c-0.22,0.22-0.33,0.51-0.33,0.8s0.11,0.58,0.33,0.8c0.44,0.44,1.15,0.44,1.59,0L17.5,19.09l14.28,14.34
	c0.22,0.22,0.51,0.33,0.8,0.33s0.58-0.11,0.8-0.33c0.44-0.44,0.44-1.15,0-1.59L19.09,17.5z"/>
</svg>
