<?xml version="1.0" encoding="utf-8"?>
<!-- Generator: Adobe Illustrator 24.0.1, SVG Export Plug-In . SVG Version: 6.00 Build 0)  -->
<svg version="1.1" id="Layer_1" xmlns="http://www.w3.org/2000/svg" xmlns:xlink="http://www.w3.org/1999/xlink" x="0px" y="0px"
	 viewBox="0 0 35 35" style="enable-background:new 0 0 35 35;" xml:space="preserve">
<path d="M33.8,32.71l-9.86-9.86c2.25-2.39,3.64-5.6,3.64-9.13c0-7.36-5.99-13.35-13.35-13.35c-7.36,0-13.35,5.99-13.35,13.35
	c0,7.36,5.99,13.35,13.35,13.35c3.02,0,5.8-1.02,8.04-2.72l9.95,9.95c0.22,0.22,0.51,0.33,0.8,0.33s0.58-0.11,0.8-0.33
	C34.24,33.86,34.24,33.15,33.8,32.71z M3.12,13.72c0-6.12,4.98-11.1,11.1-11.1s11.1,4.98,11.1,11.1s-4.98,11.1-11.1,11.1
	S3.12,19.84,3.12,13.72z"/>
</svg>
